<svg xmlns="http://www.w3.org/2000/svg" viewBox="185 550 428 776" fill="none">
  <circle cx="481.18" cy="766.27" r="122.42" fill="currentColor" opacity=".22"/>
  <circle cx="368.21" cy="1080.83" r="174.86" fill="currentColor" opacity=".22"/>
  <path fill="currentColor" d="M407.029,1269.789c10.517,10.095,10.858,26.804,0.763,37.321 c-10.095,10.517-26.804,10.858-37.321,0.763c-10.517-10.095-10.858-26.804-0.763-37.321 C379.803,1260.035,396.512,1259.694,407.029,1269.789z M347.863,1160.262c-15.914,16.579-15.376,42.92,1.203,58.834 c16.579,15.914,42.92,15.376,58.835-1.203c15.914-16.579,15.376-42.92-1.203-58.834 C390.119,1143.144,363.778,1143.683,347.863,1160.262z M392.035,567.1c-9.239,9.625-8.926,24.917,0.698,34.156 c9.625,9.239,24.916,8.926,34.156-0.698c9.239-9.624,8.926-24.917-0.698-34.156C416.566,557.163,401.274,557.476,392.035,567.1z M352.864,1102.898c22.356,21.46,57.875,20.734,79.336-1.622c21.46-22.356,20.734-57.875-1.622-79.335 c-22.356-21.46-57.875-20.734-79.335,1.622C329.782,1045.919,330.508,1081.438,352.864,1102.898z M477.865,731.571 c-21.936-21.057-56.788-20.344-77.844,1.592c-21.057,21.935-20.344,56.787,1.592,77.844c21.935,21.057,56.787,20.344,77.844-1.592 C500.513,787.48,499.8,752.628,477.865,731.571z M401.914,659.017c0.381,18.639,15.8,33.44,34.439,33.059 c18.639-0.381,33.44-15.8,33.059-34.44c-0.381-18.639-15.8-33.44-34.439-33.059C416.333,624.958,401.532,640.377,401.914,659.017z M378.002,962.37c25.944,24.904,67.165,24.062,92.069-1.882c24.904-25.944,24.062-67.165-1.882-92.069 c-25.944-24.904-67.165-24.062-92.069,1.882C351.216,896.245,352.059,937.466,378.002,962.37z M477.865,731.571 c-21.936-21.057-56.788-20.344-77.844,1.592c-21.057,21.935-20.344,56.787,1.592,77.844c21.935,21.057,56.787,20.344,77.844-1.592 C500.513,787.48,499.8,752.628,477.865,731.571z M347.863,1160.262c-15.914,16.579-15.376,42.92,1.203,58.834 c16.579,15.914,42.92,15.376,58.835-1.203c15.914-16.579,15.376-42.92-1.203-58.834 C390.119,1143.144,363.778,1143.683,347.863,1160.262z M352.864,1102.898c22.356,21.46,57.875,20.734,79.336-1.622 c21.46-22.356,20.734-57.875-1.622-79.335c-22.356-21.46-57.875-20.734-79.335,1.622 C329.782,1045.919,330.508,1081.438,352.864,1102.898z"/>
</svg>
